<svg xmlns="http://www.w3.org/2000/svg">
  <defs>
    <symbol
      viewBox="0 0 24 24"
      id="bin"
    >
      <g
        stroke="currentColor"
        stroke-width="1.5"
        fill="none"
        stroke-linecap="round"
      >
        <path
          d="M9.17 4a3.001 3.001 0 0 1 5.66 0M20.5 6h-17M18.373 15.4c-.177 2.654-.265 3.981-1.13 4.79-.865.81-2.195.81-4.856.81h-.774c-2.66 0-3.99 0-4.856-.81-.865-.809-.953-2.136-1.13-4.79l-.46-6.9m13.666 0-.2 3M9.5 11l.5 5M14.5 11l-.5 5" />
      </g>
    </symbol>
  </defs>

  <defs>
    <symbol
      viewBox="0 0 24 24"
      id="notepad"
    >
      <path
        fill="#bdc3c7"
        d="M5 2c-1.105 0-2 .9-2 2v18c0 1.1.895 2 2 2h14c1.105 0 2-.9 2-2V4c0-1.1-.895-2-2-2H5z"
      />
      <g fill="#95a5a6">
        <path
          d="M6 0c-.552 0-1 .4-1 1v3c0 .5.448 1 1 1s1-.5 1-1V1c0-.6-.448-1-1-1zm4 0c-.552 0-1 .4-1 1v3c0 .5.448 1 1 1s1-.5 1-1V1c0-.6-.448-1-1-1zm4 0c-.552 0-1 .4-1 1v3c0 .5.448 1 1 1s1-.5 1-1V1c0-.6-.448-1-1-1zm4 0c-.552 0-1 .4-1 1v3c0 .5.448 1 1 1s1-.5 1-1V1c0-.6-.448-1-1-1zM6 15h12v1H6zM6 12h12v1H6zM6 9h12v1H6zM6 18h4v1H6z" />
      </g>
      <path
        fill="#7f8c8d"
        d="M5 4c0 .5.448 1 1 1s1-.5 1-1H5zm4 0c0 .5.448 1 1 1s1-.5 1-1H9zm4 0c0 .5.448 1 1 1s1-.5 1-1h-2zm4 0c0 .5.448 1 1 1s1-.5 1-1h-2z"
      />
      <path
        fill="#95a5a6"
        d="M3 21v1c0 1.1.895 2 2 2h14c1.105 0 2-.9 2-2v-1c0 1.1-.895 2-2 2H5c-1.105 0-2-.9-2-2z"
      />
      <path
        fill="#ecf0f1"
        d="m19.158 6.966-7.99 7.99-.495.496-.708.707v2.828h2.829l.707-.707.495-.495 7.99-7.99-2.828-2.829z"
      />
      <path
        fill="#bdc3c7"
        d="M20.572 8.38 9.965 18.987h2.829l.707-.707.495-.495 7.99-7.99-1.414-1.415z"
      />
      <path
        fill="#e67e22"
        d="m18.45 7.673 2.83 2.829L13.5 18.28l-2.828-2.828z"
      />
      <path
        fill="#7f8c8d"
        d="M22.693 6.26a2.003 2.003 0 0 0-2.828 0l-.707.706 2.828 2.829.707-.707a2.003 2.003 0 0 0 0-2.829z"
      />
      <path
        fill="#34495e"
        d="m9.961 17.003.004 1.984 1.985.004-.995-.994-.994-.994z"
      />
      <path
        fill="#2c3e50"
        d="m10.955 17.997-.99.99 1.985.004-.995-.994z"
      />
      <path
        fill="#95a5a6"
        d="M22.693 6.26a2.003 2.003 0 0 0-2.828 0l-.707.706 1.414 1.414 2.121-2.12z"
      />
      <path
        fill="#d35400"
        d="m19.865 9.088 1.414 1.414-7.778 7.778-1.414-1.414z"
      />
    </symbol>
  </defs>

  <defs>
    <symbol
      viewBox="0 0 24 24"
      id="pushpin"
    >
      <g fill="currentColor">
        <path
          d="m15.99 4.95.53-.53-.53.53ZM8.737 19.43l-.53.53.53-.53Zm-4.116-4.12.53-.53-.53.53Zm12.945-.315-.264-.702.264.702Zm-1.917.72.264.703-.264-.702ZM8.332 8.383l-.704-.258.704.258Zm.695-1.896.704.258-.704-.258Zm-3.182 4.188.2.723-.2-.723Zm1.457-.539-.438-.609.438.61Zm.374-.345.57.487-.57-.487Zm6.575 6.59.491.568-.49-.567Zm-.87 1.821-.723-.199.723.2Zm.536-1.454-.61-.438.61.438ZM2.719 12.755l-.75.005.75-.005Zm.212-.803-.65-.374.65.374Zm8.374 9.391.001-.75v.75Zm.788-.208-.371-.652.371.652Zm9.872-8.83.733.158-.733-.158ZM11.697 2.036l.162.732-.162-.732Zm10.658 8.594a.75.75 0 1 0-1.305.74l1.305-.74Zm-4.349-2.6a.75.75 0 0 0 1.061-1.06l-1.061 1.06ZM9.269 18.9l-4.117-4.12-1.06 1.06 4.116 4.12 1.061-1.06Zm8.034-4.607-1.917.72.528 1.405 1.917-.72-.528-1.405ZM9.036 8.64l.695-1.896-1.408-.516-.695 1.896 1.408.516Zm-2.992 2.756c.712-.196 1.253-.334 1.696-.652l-.876-1.218c-.173.125-.398.198-1.218.424l.398 1.447Zm1.584-3.272c-.293.8-.385 1.018-.523 1.18l1.142.973c.353-.415.535-.944.79-1.637l-1.409-.516Zm.112 2.62c.187-.135.357-.292.507-.467l-1.142-.973a1.366 1.366 0 0 1-.241.222l.876 1.218Zm7.646 4.268c-.689.26-1.214.445-1.626.801l.982 1.135c.16-.14.377-.233 1.172-.531l-.528-1.405ZM14.104 18.4c.225-.819.298-1.043.422-1.216l-1.218-.875c-.318.443-.455.983-.65 1.693l1.446.398Zm-.344-2.586c-.17.146-.322.313-.452.495l1.218.875c.063-.087.135-.167.216-.236l-.982-1.135Zm-8.608-1.036c-.646-.647-1.084-1.087-1.368-1.444-.286-.359-.315-.514-.315-.583l-1.5.009c.003.582.292 1.07.641 1.508.35.44.861.95 1.481 1.57l1.061-1.06Zm.494-4.828c-.845.234-1.542.424-2.063.634-.52.208-1.012.49-1.302.994l1.3.748c.034-.06.136-.18.56-.35.424-.17 1.022-.337 1.903-.58L5.646 9.95Zm-2.177 2.8a.84.84 0 0 1 .111-.424l-1.3-.748a2.34 2.34 0 0 0-.311 1.182l1.5-.01Zm4.739 7.21c.624.624 1.137 1.139 1.579 1.49.44.352.931.642 1.517.643l.002-1.5c-.069 0-.224-.029-.585-.316-.36-.286-.802-.727-1.452-1.378l-1.061 1.06Zm4.45-1.958c-.245.888-.412 1.49-.583 1.917-.172.428-.293.53-.353.564l.743 1.303c.51-.29.792-.786 1.002-1.309.21-.524.402-1.225.637-2.077l-1.446-.398Zm-1.354 4.091c.407 0 .807-.105 1.161-.307l-.743-1.303a.835.835 0 0 1-.416.11l-.002 1.5Zm6.527-6.397c1.361-.511 2.463-.923 3.246-1.358.795-.44 1.431-.996 1.621-1.875l-1.466-.317c-.054.25-.232.52-.883.88-.663.369-1.638.737-3.046 1.266l.528 1.404ZM16.52 4.42c-1.036-1.037-1.872-1.876-2.595-2.414-.734-.544-1.508-.897-2.39-.702l.324 1.464c.25-.055.569-.005 1.171.443.613.455 1.358 1.197 2.429 2.27l1.061-1.06ZM9.731 6.744c.522-1.423.885-2.41 1.25-3.08.36-.66.628-.84.878-.896l-.323-1.464c-.882.194-1.435.84-1.872 1.642-.431.792-.837 1.906-1.341 3.282l1.408.516Zm11.32 4.626c.2.355.224.58.181.776l1.466.317c.142-.657-.018-1.26-.343-1.833l-1.305.74Zm-5.592-5.89 2.547 2.55 1.061-1.06-2.547-2.55-1.061 1.06Z" />
        <path
          d="M1.47 21.47a.75.75 0 0 0 1.06 1.06l-1.06-1.06Zm5.714-3.598a.75.75 0 0 0-1.061-1.06l1.06 1.06ZM2.53 22.53l4.653-4.658-1.061-1.06-4.654 4.658 1.062 1.06Z" />
      </g>
    </symbol>
  </defs>

  <defs>
    <symbol
      viewBox="0 0 24 24"
      fill="none"
      id="writinghand"
    >
      <path
        d="m16.652 3.455.649-.649A2.753 2.753 0 0 1 21.194 6.7l-.65.649m-3.892-3.893s.081 1.379 1.298 2.595c1.216 1.217 2.595 1.298 2.595 1.298m-3.893-3.893L10.687 9.42c-.404.404-.606.606-.78.829-.205.262-.38.547-.524.848-.121.255-.211.526-.392 1.068L8.412 13.9m12.133-6.552-2.983 2.982m-2.982 2.983c-.404.404-.606.606-.829.78a4.59 4.59 0 0 1-.848.524c-.255.121-.526.211-1.068.392l-1.735.579m0 0-1.123.374a.742.742 0 0 1-.939-.94l.374-1.122m1.688 1.688L8.412 13.9"
        stroke="currentColor"
        stroke-width="1.5"
        stroke-linecap="round"
      />
      <path
        d="M22.75 12a.75.75 0 0 0-1.5 0h1.5ZM12 2.75a.75.75 0 0 0 0-1.5v1.5ZM7.376 20.013a.75.75 0 1 0-.752 1.298l.752-1.298Zm-4.687-2.638a.75.75 0 1 0 1.298-.75l-1.298.75ZM21.25 12A9.25 9.25 0 0 1 12 21.25v1.5c5.937 0 10.75-4.813 10.75-10.75h-1.5ZM12 1.25C6.063 1.25 1.25 6.063 1.25 12h1.5A9.25 9.25 0 0 1 12 2.75v-1.5ZM6.624 21.311A10.704 10.704 0 0 0 12 22.75v-1.5a9.204 9.204 0 0 1-4.624-1.237l-.752 1.298ZM1.25 12c0 1.957.524 3.794 1.439 5.375l1.298-.75A9.204 9.204 0 0 1 2.75 12h-1.5Z"
        fill="currentColor"
      />
    </symbol>
  </defs>

  <defs>
    <symbol
      viewBox="0 0 24 24"
      fill="none"
      id="tag"
    >
      <g
        stroke="currentColor"
        stroke-width="1.75"
        stroke-linecap="round"
      >
        <path
          d="M13.358 21c2.227 0 3.341 0 4.27-.533.93-.532 1.52-1.509 2.701-3.462l.681-1.126c.993-1.643 1.49-2.465 1.49-3.379 0-.914-.497-1.736-1.49-3.379l-.68-1.126c-1.181-1.953-1.771-2.93-2.701-3.462C16.699 4 15.585 4 13.358 4h-2.637C9.683 4 8.783 4 8 4.024m-4.296 1.22C2.5 6.49 2.5 8.495 2.5 12.5c0 4.007 0 6.01 1.204 7.255.998 1.033 2.501 1.209 5.196 1.239M7.5 7.995V17" />
      </g>
    </symbol>
  </defs>

  <defs>
    <symbol
      viewBox="0 0 24 24"
      fill="none"
      id="calendar"
    >
      <path
        stroke="#404040"
        stroke-linecap="round"
        stroke-linejoin="round"
        stroke-width="1.75"
        d="M3 10h18M7 3v2m10-2v2M6.2 21h11.6c1.12 0 1.68 0 2.108-.218a2 2 0 0 0 .874-.874C21 19.48 21 18.92 21 17.8V8.2c0-1.12 0-1.68-.218-2.108a2 2 0 0 0-.874-.874C19.48 5 18.92 5 17.8 5H6.2c-1.12 0-1.68 0-2.108.218a2 2 0 0 0-.874.874C3 6.52 3 7.08 3 8.2v9.6c0 1.12 0 1.68.218 2.108a2 2 0 0 0 .874.874C4.52 21 5.08 21 6.2 21Z"
      />
    </symbol>
  </defs>

  <defs>
    <symbol
      viewBox="0 0 24 24"
      fill="none"
      id="search"
    >
      <path
        stroke="currentColor"
        stroke-linecap="round"
        stroke-linejoin="round"
        stroke-width="1.5"
        d="M21 21l-5.197-5.197m0 0A7.5 7.5 0 105.196 5.196a7.5 7.5 0 0010.607 10.607z"
      />
    </symbol>
  </defs>

  <defs>
    <symbol
      viewBox="0 0 24 24"
      fill="none"
      id="x"
    >
      <path
        stroke="currentColor"
        stroke-linecap="round"
        stroke-linejoin="round"
        stroke-width="2.5"
        d="M6 18L18 6M6 6l12 12"
      />
    </symbol>
  </defs>

  <defs>
    <symbol
      viewBox="0 0 24 24"
      fill="none"
      id="grid"
    >
      <g
        stroke="#737373"
        stroke-linecap="round"
        stroke-linejoin="round"
        stroke-width="0.575"
      >
        <path d="M3.5 20.5v-7h17v7h-17ZM3.5 10.5v-7h17v7h-17Z" />
      </g>
    </symbol>
  </defs>

  <defs>
    <symbol
      viewBox="0 0 24 24"
      fill="none"
      id="list"
    >
      <g
        stroke="#737373"
        stroke-linecap="round"
        stroke-linejoin="round"
        stroke-width="0.575"
      >
        <path d="M3.5 3.5h7v7h-7v-7ZM3.5 13.5h7v7h-7v-7ZM13.5 3.5h7v7h-7v-7ZM13.5 13.5h7v7h-7v-7Z" />
      </g>
    </symbol>
  </defs>

  <defs>
    <symbol
      viewBox="0 0 24 24"
      fill="none"
      id="leftchevron"
    >
      <path
        stroke-linecap="round"
        stroke-linejoin="round"
        stroke-width="2.5"
        stroke="currentColor"
        d="M15.75 19.5L8.25 12l7.5-7.5"
      />
    </symbol>
  </defs>
</svg>